<svg width="22" height="22" viewBox="0 0 22 22" fill="none" xmlns="http://www.w3.org/2000/svg">
<g id="bx-bell">
<mask id="mask0_41_2281" style="mask-type:luminance" maskUnits="userSpaceOnUse" x="0" y="0" width="23" height="22">
<rect id="Background" x="0.00146484" width="22" height="22" fill="white"/>
</mask>
<g mask="url(#mask0_41_2281)">
<path id="Shape" fill-rule="evenodd" clip-rule="evenodd" d="M17.4181 12.4538V9.16665C17.4181 6.21773 15.4152 3.73356 12.7019 2.98648C12.4333 2.30998 11.777 1.83331 11.0015 1.83331C10.226 1.83331 9.56963 2.30998 9.30105 2.98648C6.58771 3.73448 4.5848 6.21773 4.5848 9.16665V12.4538L3.02005 14.0186C2.84771 14.19 2.75146 14.4228 2.75146 14.6666V16.5C2.75146 17.0069 3.16121 17.4166 3.66813 17.4166H18.3348C18.8417 17.4166 19.2515 17.0069 19.2515 16.5V14.6666C19.2515 14.4228 19.1552 14.19 18.9829 14.0186L17.4181 12.4538ZM17.4183 15.5833H4.58496V15.0461L6.14971 13.4814C6.32204 13.31 6.41829 13.0771 6.41829 12.8333V9.16665C6.41829 6.6394 8.47438 4.58331 11.0016 4.58331C13.5289 4.58331 15.585 6.6394 15.585 9.16665V12.8333C15.585 13.0771 15.6812 13.31 15.8535 13.4814L17.4183 15.0461V15.5833ZM11.0016 20.1666C12.2034 20.1666 13.208 19.4021 13.5848 18.3333H8.41846C8.79521 19.4021 9.79987 20.1666 11.0016 20.1666Z" fill="#495057"/>
</g>
</g>
</svg>
