<svg width="22" height="22" viewBox="0 0 22 22" fill="none" xmlns="http://www.w3.org/2000/svg">
<g id="bx-moon">
<mask id="mask0_41_2290" style="mask-type:luminance" maskUnits="userSpaceOnUse" x="0" y="0" width="23" height="22">
<rect id="Background" x="0.00146484" width="22" height="22" fill="white"/>
</mask>
<g mask="url(#mask0_41_2290)">
<path id="Shape" fill-rule="evenodd" clip-rule="evenodd" d="M19.0151 11.9579C18.3945 12.1229 17.7538 12.2063 17.1112 12.2063C15.1541 12.2063 13.3162 11.4455 11.9357 10.065C10.095 8.22434 9.36994 5.51192 10.0437 2.98559C10.128 2.66934 10.0373 2.332 9.80627 2.101C9.57527 1.87 9.23885 1.7765 8.92077 1.8645C7.3606 2.28159 5.93793 3.10017 4.80585 4.23134C1.23268 7.8045 1.23268 13.6208 4.80585 17.1958C6.53744 18.9273 8.8401 19.8816 11.2885 19.8816C13.7369 19.8816 16.0387 18.9283 17.7694 17.1967C18.9024 16.0628 19.7219 14.6383 20.1371 13.0799C20.2214 12.7637 20.1298 12.4263 19.8988 12.1953C19.6678 11.9634 19.3295 11.8718 19.0151 11.9579ZM16.4743 15.9005C15.0892 17.2856 13.2476 18.0483 11.2896 18.0483C9.33068 18.0483 7.4891 17.2847 6.1031 15.8996C3.24493 13.0405 3.24493 8.38751 6.1031 5.52842C6.65493 4.97659 7.29293 4.51826 7.99143 4.16901C7.78793 6.81359 8.7376 9.46001 10.6406 11.363C12.5363 13.2596 15.157 14.223 17.8346 14.0131C17.4844 14.7088 17.0252 15.3478 16.4743 15.9005Z" fill="#495057"/>
</g>
</g>
</svg>
