<svg width="20" height="18" viewBox="0 0 20 18" fill="none" xmlns="http://www.w3.org/2000/svg">
<g id="magnify">
<mask id="mask0_41_2305" style="mask-type:luminance" maskUnits="userSpaceOnUse" x="0" y="0" width="20" height="18">
<rect id="Background" x="0.0217285" width="19.4148" height="18" fill="white"/>
</mask>
<g mask="url(#mask0_41_2305)">
<path id="Shape" fill-rule="evenodd" clip-rule="evenodd" d="M7.70667 2.25C10.6108 2.25 12.9649 4.4325 12.9649 7.125C12.9649 8.3325 12.4876 9.4425 11.7029 10.2975L11.9213 10.5H12.5604L16.6051 14.25L15.3917 15.375L11.347 11.625V11.0325L11.1285 10.83C10.2063 11.5575 9.00909 12 7.70667 12C4.80254 12 2.44849 9.8175 2.44849 7.125C2.44849 4.4325 4.80254 2.25 7.70667 2.25ZM7.70669 3.75C5.68431 3.75 4.06641 5.25 4.06641 7.125C4.06641 9 5.68431 10.5 7.70669 10.5C9.72907 10.5 11.347 9 11.347 7.125C11.347 5.25 9.72907 3.75 7.70669 3.75Z" fill="#878A99"/>
</g>
</g>
</svg>
