<svg width="30" height="29" viewBox="0 0 30 29" fill="none" xmlns="http://www.w3.org/2000/svg">
<g id="Action">
<rect id="Rectangle 2" width="30" height="29" rx="4" fill="#878A99" fill-opacity="0.101961"/>
<g id="more">
<path id="Shape" fill-rule="evenodd" clip-rule="evenodd" d="M10.625 13.625C10.1438 13.625 9.75 14.0188 9.75 14.5C9.75 14.9813 10.1438 15.375 10.625 15.375C11.1063 15.375 11.5 14.9813 11.5 14.5C11.5 14.0188 11.1063 13.625 10.625 13.625ZM19.375 13.625C18.8937 13.625 18.5 14.0188 18.5 14.5C18.5 14.9813 18.8937 15.375 19.375 15.375C19.8563 15.375 20.25 14.9813 20.25 14.5C20.25 14.0188 19.8563 13.625 19.375 13.625ZM15 13.625C14.5188 13.625 14.125 14.0188 14.125 14.5C14.125 14.9813 14.5188 15.375 15 15.375C15.4812 15.375 15.875 14.9813 15.875 14.5C15.875 14.0188 15.4812 13.625 15 13.625Z" fill="#878A99"/>
</g>
</g>
</svg>
