<svg width="17" height="17" viewBox="0 0 17 17" fill="none" xmlns="http://www.w3.org/2000/svg">
<g id="user-smile-line">
<path id="Shape" fill-rule="evenodd" clip-rule="evenodd" d="M8.50016 15.1654C4.81816 15.1654 1.8335 12.1807 1.8335 8.4987C1.8335 4.8167 4.81816 1.83203 8.50016 1.83203C12.1822 1.83203 15.1668 4.8167 15.1668 8.4987C15.1668 12.1807 12.1822 15.1654 8.50016 15.1654ZM8.50031 13.8307C11.4458 13.8307 13.8336 11.4429 13.8336 8.49741C13.8337 5.5519 11.4459 3.16408 8.50034 3.16406C5.55483 3.16405 3.16701 5.55186 3.16699 8.49737C3.16698 11.4429 5.55477 13.8307 8.50029 13.8307H8.50031ZM5.16699 8.5H6.50033C6.50033 9.60457 7.39575 10.5 8.50032 10.5C9.60489 10.5 10.5003 9.60458 10.5003 8.50001L11.8337 8.5C11.8337 9.69089 11.1983 10.7913 10.167 11.3868C9.13565 11.9822 7.865 11.9822 6.83366 11.3868C5.80232 10.7913 5.16699 9.69088 5.16699 8.5Z" fill="white"/>
</g>
</svg>
