<svg width="18" height="18" viewBox="0 0 18 18" fill="none" xmlns="http://www.w3.org/2000/svg">
<g id="home">
<path id="Vector" fill-rule="evenodd" clip-rule="evenodd" d="M7.2793 16.7844V7.72871C7.2793 7.7037 7.28814 7.68236 7.30582 7.66468C7.3235 7.64699 7.34485 7.63815 7.36985 7.63815H10.6299C10.6549 7.63815 10.6763 7.64699 10.6939 7.66468C10.7116 7.68236 10.7205 7.7037 10.7205 7.72871V16.7844C10.7205 16.8094 10.7116 16.8308 10.6939 16.8485C10.6763 16.8662 10.6549 16.875 10.6299 16.875C10.6049 16.875 10.5836 16.8662 10.5659 16.8485C10.5482 16.8308 10.5394 16.8094 10.5394 16.7844V7.81927H7.46041V16.7844C7.46041 16.8094 7.45157 16.8308 7.43389 16.8485C7.4162 16.8662 7.39486 16.875 7.36985 16.875C7.34485 16.875 7.3235 16.8662 7.30582 16.8485C7.28814 16.8308 7.2793 16.8094 7.2793 16.7844Z" fill="#FAFAFA" stroke="#FAFAFA"/>
<mask id="mask0_41_2475" style="mask-type:luminance" maskUnits="userSpaceOnUse" x="0" y="0" width="18" height="18">
<rect id="Background" width="18" height="18" fill="white"/>
</mask>
<g mask="url(#mask0_41_2475)">
<path id="Shape" d="M2.25 6.75L9 1.5L15.75 6.75V15C15.75 15.8284 15.0784 16.5 14.25 16.5H3.75C2.92157 16.5 2.25 15.8284 2.25 15V6.75Z" stroke="#FAFAFA" stroke-width="2" stroke-linecap="round" stroke-linejoin="round"/>
</g>
</g>
</svg>
