<svg width="18" height="18" viewBox="0 0 18 18" fill="none" xmlns="http://www.w3.org/2000/svg">
<g id="layout">
<mask id="mask0_41_2454" style="mask-type:luminance" maskUnits="userSpaceOnUse" x="0" y="0" width="18" height="18">
<rect id="Background" width="18" height="18" fill="white"/>
</mask>
<g mask="url(#mask0_41_2454)">
<path id="Rectangle" fill-rule="evenodd" clip-rule="evenodd" d="M2.25 5.25V3.75C2.25 3.33579 2.39645 2.98223 2.68934 2.68934C2.98223 2.39645 3.33579 2.25 3.75 2.25H14.25C14.6642 2.25 15.0178 2.39645 15.3107 2.68934C15.6036 2.98223 15.75 3.33579 15.75 3.75V14.25C15.75 14.6642 15.6036 15.0178 15.3107 15.3107C15.0178 15.6036 14.6642 15.75 14.25 15.75H3.75C3.33579 15.75 2.98223 15.6036 2.68934 15.3107C2.39645 15.0178 2.25 14.6642 2.25 14.25V5.25Z" stroke="#FEFEFE" stroke-width="2" stroke-linecap="round" stroke-linejoin="round"/>
<path id="Line" d="M2.25 6.75H15.75" stroke="#FEFEFE" stroke-width="2" stroke-linecap="round" stroke-linejoin="round"/>
<path id="Line_2" d="M6.75 15.75V6.75" stroke="#FEFEFE" stroke-width="2" stroke-linecap="round" stroke-linejoin="round"/>
</g>
</g>
</svg>
