<svg width="18" height="18" viewBox="0 0 18 18" fill="none" xmlns="http://www.w3.org/2000/svg">
<g id="arrow-down-circle-line">
<g id="Group">
<path id="Shape" fill-rule="evenodd" clip-rule="evenodd" d="M9.00342 1.5C13.1434 1.5 16.5034 4.86 16.5034 9C16.5034 13.14 13.1434 16.5 9.00342 16.5C4.86342 16.5 1.50342 13.14 1.50342 9C1.50342 4.86 4.86342 1.5 9.00342 1.5ZM9.00342 15C12.3184 15 15.0034 12.315 15.0034 9C15.0034 5.685 12.3184 3 9.00342 3C5.68842 3 3.00342 5.685 3.00342 9C3.00342 12.315 5.68842 15 9.00342 15ZM9.75342 9H12.0034L9.00342 12L6.00342 9H8.25342V6H9.75342V9Z" fill="#F06548"/>
</g>
</g>
</svg>
