<svg width="18" height="18" viewBox="0 0 18 18" fill="none" xmlns="http://www.w3.org/2000/svg">
<g id="arrow-up-circle-line">
<g id="Group">
<path id="Shape" fill-rule="evenodd" clip-rule="evenodd" d="M9.00146 1.5C13.1415 1.5 16.5015 4.86 16.5015 9C16.5015 13.14 13.1415 16.5 9.00146 16.5C4.86146 16.5 1.50146 13.14 1.50146 9C1.50146 4.86 4.86146 1.5 9.00146 1.5ZM9.00146 15C12.3165 15 15.0015 12.315 15.0015 9C15.0015 5.685 12.3165 3 9.00146 3C5.68646 3 3.00146 5.685 3.00146 9C3.00146 12.315 5.68646 15 9.00146 15ZM9.75146 9V12H8.25146V9H6.00146L9.00146 6L12.0015 9H9.75146Z" fill="#0AB39C"/>
</g>
</g>
</svg>
