<svg width="40" height="40" viewBox="0 0 40 40" fill="none" xmlns="http://www.w3.org/2000/svg">
<g id="exchange-dollar-line">
<g id="Group">
<path id="Shape" fill-rule="evenodd" clip-rule="evenodd" d="M32.2931 25.1717C34.5105 19.9032 33.1234 13.8074 28.8446 10.0171C24.5659 6.22679 18.3474 5.58505 13.3848 8.42169L11.7314 5.52668C16.8788 2.5848 23.2017 2.60003 28.3348 5.56668C35.8181 9.88668 38.6848 19.1367 35.1964 26.85L37.4331 28.14L30.4914 31.83L30.2164 23.9734L32.2931 25.1717H32.2931ZM7.70978 14.8284C5.49242 20.0969 6.87952 26.1926 11.1582 29.9829C15.437 33.7733 21.6555 34.415 26.6181 31.5784L28.2714 34.4734C23.1241 37.4152 16.8012 37.4 11.6681 34.4334C4.18478 30.1134 1.31812 20.8634 4.80645 13.15L2.56812 11.8617L9.50978 8.17169L9.78478 16.0284L7.70811 14.83L7.70978 14.8284ZM14.1681 23.3334H23.3348C23.795 23.3334 24.1681 22.9603 24.1681 22.5C24.1681 22.0398 23.795 21.6667 23.3348 21.6667H16.6681C15.1795 21.6667 13.804 20.8725 13.0597 19.5834C12.3154 18.2942 12.3154 16.7059 13.0597 15.4167C13.804 14.1275 15.1795 13.3334 16.6681 13.3334H18.3348V11.6667H21.6681V13.3334H25.8348V16.6667H16.6681C16.2079 16.6667 15.8348 17.0398 15.8348 17.5C15.8348 17.9603 16.2079 18.3334 16.6681 18.3334H23.3348C24.8234 18.3334 26.1989 19.1275 26.9432 20.4167C27.6875 21.7059 27.6875 23.2942 26.9432 24.5834C26.1989 25.8725 24.8234 26.6667 23.3348 26.6667H21.6681V28.3334H18.3348V26.6667H14.1681V23.3334Z" fill="#878A99"/>
</g>
</g>
</svg>
