<svg width="40" height="40" viewBox="0 0 40 40" fill="none" xmlns="http://www.w3.org/2000/svg">
<g id="service-line">
<g id="Group">
<path id="Shape" fill-rule="evenodd" clip-rule="evenodd" d="M5.27185 7.44833C9.28247 3.43699 15.7083 3.19857 20.0052 6.90167C24.2978 3.20507 30.7137 3.43987 34.7246 7.44035C38.7356 11.4408 38.9872 17.856 35.3019 22.1583L22.3602 35.1417C21.1268 36.3754 19.1508 36.4496 17.8285 35.3117L17.6452 35.1433L4.70519 22.1583C1.02199 17.86 1.2689 11.4506 5.27186 7.44833L5.27185 7.44833ZM7.62859 9.80501C4.79752 12.6369 4.6904 17.1932 7.38526 20.155L7.62859 20.4117L20.0036 32.7867L28.8419 23.9467L22.9503 18.055L21.1836 19.8217C19.9207 21.0852 18.0796 21.579 16.3539 21.117C14.6281 20.6551 13.28 19.3075 12.8172 17.582C12.3544 15.8565 12.8473 14.0152 14.1103 12.7517L17.6136 9.24668C14.7336 6.94815 10.6106 7.08165 7.88526 9.56168L7.62859 9.80501L7.62859 9.80501ZM21.7719 14.5183C22.4227 13.8677 23.4777 13.8677 24.1285 14.5183L31.1985 21.5883L32.3785 20.4117C35.2607 17.5316 35.3162 12.8773 32.5036 9.92925C29.691 6.98123 25.0392 6.81802 22.0269 9.56168L21.7719 9.80501L16.4685 15.1083C15.8706 15.7059 15.8147 16.6565 16.3385 17.32L16.4685 17.465C17.0661 18.063 18.0167 18.1188 18.6802 17.595L18.8252 17.465L21.7719 14.5183Z" fill="#9499AD"/>
</g>
</g>
</svg>
