<svg width="40" height="40" viewBox="0 0 40 40" fill="none" xmlns="http://www.w3.org/2000/svg">
<g id="space-ship-line">
<g id="Group">
<path id="Shape" fill-rule="evenodd" clip-rule="evenodd" d="M4.80155 30.09C7.0952 19.9412 11.9959 10.5661 19.0199 2.89002C19.2724 2.6153 19.6284 2.45896 20.0016 2.45895C20.3747 2.45895 20.7307 2.61529 20.9832 2.89001C21.2599 3.19001 21.4899 3.44334 21.6716 3.64834C28.3325 11.1848 32.9859 20.2789 35.2016 30.09C31.6332 30.8417 27.9682 31.335 24.2282 31.5467L20.7466 38.51C20.6053 38.7919 20.3169 38.9699 20.0016 38.9699C19.6862 38.9699 19.3979 38.7919 19.2566 38.51L15.7749 31.5467C12.0856 31.3382 8.4174 30.8512 4.80151 30.09L4.80155 30.09ZM15.9649 28.2183L17.8933 28.3283L20.0016 32.545L22.1099 28.3283L24.0383 28.2183C26.3978 28.0848 28.7492 27.8323 31.0833 27.4617C28.872 19.8815 25.097 12.8487 20.0016 6.81668C14.9062 12.8487 11.1312 19.8815 8.91992 27.4617C11.2449 27.8317 13.5949 28.085 15.9649 28.2183ZM20.0015 25C18.2151 25 16.5645 24.047 15.6713 22.5C14.7782 20.953 14.7782 19.047 15.6713 17.5C16.5645 15.953 18.2151 15 20.0015 15C21.7878 15 23.4384 15.953 24.3316 17.5C25.2248 19.047 25.2248 20.953 24.3316 22.5C23.4384 24.047 21.7878 25 20.0015 25ZM20.0016 21.6667C20.9221 21.6667 21.6683 20.9205 21.6683 20C21.6683 19.0795 20.9221 18.3333 20.0016 18.3333C19.0812 18.3333 18.335 19.0795 18.335 20C18.335 20.9205 19.0811 21.6667 20.0016 21.6667H20.0016Z" fill="#9499AD"/>
</g>
</g>
</svg>
